<svg xmlns="http://www.w3.org/2000/svg" width="48" height="48" viewBox="0 0 48 48"><path fill="#BBDEFB" d="M11.5 14.998999999999999A6.5 6.5 0 1 0 11.5 27.999 6.5 6.5 0 1 0 11.5 14.998999999999999zM35.5 14.998999999999999A6.5 6.5 0 1 0 35.5 27.999 6.5 6.5 0 1 0 35.5 14.998999999999999z"/><path fill="#BBDEFB" d="M11,28l25,0.001c0,0,0-4.976,0-7.001l-25,0V28z"/><path fill="#BBDEFB" d="M28 6.0009999999999994A8 8 0 1 0 28 22.000999999999998A8 8 0 1 0 28 6.0009999999999994Z"/><path fill="#BBDEFB" d="M17 8.999A6 6 0 1 0 17 20.999000000000002A6 6 0 1 0 17 8.999Z"/><path fill="#BBDEFB" d="M24.25 13.234A6.417 6.417 0 1 0 24.25 26.067999999999998A6.417 6.417 0 1 0 24.25 13.234Z"/><path fill="#64B5F6" d="M24,39c1.188,1.188,2,2,3,2s3-0.333,3-2.479c0-1.604-1.201-2.345-1.734-2.515C28.149,35.915,22.606,35.276,15,33l11.696,0.012c0,0,1.289-0.047,1.993,0.039c1.374,0.179,2.65,0.971,3.443,2.113c0.79,1.148,1.054,2.627,0.734,3.974c-0.308,1.35-1.207,2.543-2.408,3.216c-1.196,0.689-2.674,0.83-3.977,0.408C24.13,42.037,24,39,24,39z"/><g><path fill="#90CAF9" d="M22,13c-0.113-2.276,1.577-5.37,4.11-6.436c0.641-0.272,1.289-0.428,2.03-0.511c0.186-0.047,0.732-0.057,1.038-0.053c0.357,0.006,0.719,0.033,1.079,0.089c1.457,0.19,2.833,0.902,3.998,1.866c2.375,1.927,3.575,5.375,2.856,8.537C36.456,19.694,34,24,28,24c-14,0-23-3-23-3l6.172-0.392l6.183-0.303l6.183-0.304l3.092-0.151l1.551-0.072c0.482-0.014,0.959-0.103,1.422-0.233c1.86-0.524,3.385-2.094,3.86-3.978c0.504-1.881-0.057-4.002-1.442-5.387C30.663,8.77,28.53,8.169,26.625,8.64C23.344,9.781,22,13,22,13z"/><path fill="#90CAF9" d="M42.048,16.642c-0.71-1.439-1.755-2.67-2.998-3.58c-0.666-0.502-1.403-0.889-2.172-1.174c0.374,1.16,0.511,2.404,0.381,3.637c1.496,1.388,2.3,3.471,2.086,5.499c-0.188,2.104-1.464,4.068-3.296,5.105c-0.909,0.529-1.946,0.817-2.992,0.874l-3.315,0.027L8,27c0,0,7.031,4,24.063,4c2.969,0,4.531-0.597,5.974-1.452c2.901-1.711,4.813-4.885,4.954-8.21C43.062,19.745,42.739,18.083,42.048,16.642z"/></g></svg>